<?xml version="1.0" standalone="no"?>
<!DOCTYPE svg PUBLIC "-//W3C//DTD SVG 20010904//EN"
 "http://www.w3.org/TR/2001/REC-SVG-20010904/DTD/svg10.dtd">
<svg version="1.0" xmlns="http://www.w3.org/2000/svg"
 width="562.000000pt" height="562.000000pt" viewBox="0 0 562.000000 562.000000"
 preserveAspectRatio="xMidYMid meet">
<metadata>
Created by potrace 1.14, written by Peter Selinger 2001-2017
</metadata>
<g transform="translate(0.000000,562.000000) scale(0.100000,-0.100000)"
fill="#000000" stroke="none">
<path d="M2515 5609 c-59 -7 -225 -33 -289 -45 -10 -2 -55 -13 -100 -25 -45
-11 -89 -22 -99 -24 -52 -11 -270 -92 -378 -141 -833 -376 -1436 -1143 -1604
-2039 -3 -16 -7 -39 -9 -51 -4 -21 -8 -50 -25 -189 -5 -38 -8 -164 -9 -280 0
-297 29 -498 109 -778 188 -656 624 -1231 1208 -1595 340 -211 736 -353 1126
-401 131 -17 193 -20 360 -20 167 0 219 3 390 26 34 4 197 35 260 48 227 50
571 191 790 325 786 479 1285 1293 1350 2202 6 79 6 351 1 398 -2 19 -7 64
-10 100 -9 90 -35 243 -53 315 -8 33 -16 67 -18 75 -11 56 -56 203 -90 290
-148 388 -355 708 -644 999 -273 274 -591 483 -951 626 -208 82 -452 147 -646
170 -33 4 -68 10 -79 12 -36 9 -518 10 -590 2z m405 -49 c83 -3 253 -20 325
-34 11 -2 40 -7 65 -11 83 -13 304 -73 415 -113 157 -56 311 -129 490 -231
237 -136 554 -416 739 -651 289 -368 507 -878 561 -1309 4 -30 8 -63 10 -73 8
-41 16 -210 16 -328 -1 -860 -407 -1666 -1101 -2187 -135 -102 -254 -174 -420
-256 -180 -90 -194 -95 -360 -151 -126 -41 -312 -88 -405 -101 -22 -3 -51 -8
-65 -10 -14 -2 -52 -7 -85 -10 -33 -3 -80 -8 -105 -11 -59 -6 -353 -6 -410 1
-25 3 -70 7 -100 11 -93 9 -230 33 -338 59 -892 216 -1622 872 -1934 1740 -46
129 -113 384 -123 470 -3 32 -8 62 -10 65 -2 3 -6 41 -10 85 -4 44 -9 91 -11
105 -6 39 -5 348 1 415 25 294 91 568 200 830 307 742 919 1311 1679 1560 158
52 348 96 476 111 30 3 64 8 75 10 11 2 72 7 135 10 63 4 116 7 117 8 1 1 26
1 55 -1 29 -1 82 -2 118 -3z"/>
<path d="M2708 5475 c-2 -1 -48 -6 -103 -9 -55 -4 -111 -9 -125 -11 -580 -77
-1098 -329 -1507 -732 -120 -118 -204 -211 -242 -266 -8 -12 -18 -24 -21 -27
-13 -9 -138 -194 -169 -250 -155 -273 -269 -570 -315 -820 -2 -14 -7 -36 -10
-50 -9 -40 -19 -121 -35 -269 -13 -128 -6 -389 15 -556 51 -403 211 -814 452
-1160 130 -187 325 -397 506 -544 281 -229 682 -430 1016 -508 97 -22 99 -23
185 -38 294 -53 654 -53 935 1 14 3 39 7 55 10 264 46 653 206 913 377 197
129 466 368 587 522 22 28 42 52 46 55 16 15 135 188 182 265 212 351 349 776
375 1165 11 166 5 431 -12 530 -2 14 -7 47 -11 73 -4 27 -8 59 -11 70 -2 12
-7 36 -9 52 -3 17 -12 57 -20 90 -9 33 -18 70 -21 83 -10 48 -86 264 -120 344
-70 165 -174 346 -297 521 -57 82 -171 212 -271 313 -219 218 -458 387 -726
512 -156 73 -165 77 -298 121 -195 65 -372 103 -597 126 -57 6 -342 14 -347
10z m350 -40 c41 -3 81 -8 90 -10 9 -1 39 -6 66 -9 158 -22 457 -104 581 -160
17 -7 59 -26 95 -42 63 -27 81 -36 205 -104 100 -55 244 -152 353 -239 161
-129 295 -267 465 -481 45 -57 144 -213 194 -306 114 -212 211 -465 248 -644
2 -8 10 -44 18 -80 8 -36 18 -89 22 -119 4 -30 9 -63 11 -75 17 -87 23 -384
10 -550 -6 -87 -35 -281 -50 -343 -3 -13 -8 -31 -10 -40 -25 -111 -99 -336
-138 -423 -194 -430 -461 -774 -808 -1041 -238 -183 -469 -308 -755 -407 -70
-25 -264 -78 -315 -86 -19 -3 -46 -8 -60 -11 -14 -3 -43 -8 -65 -11 -22 -3
-49 -7 -60 -9 -86 -18 -410 -25 -565 -12 -333 27 -704 137 -1000 294 -85 45
-322 197 -350 224 -8 8 -42 34 -74 59 -87 65 -299 280 -388 391 -191 240 -345
521 -442 810 -32 95 -72 244 -82 309 -2 14 -6 34 -9 45 -2 11 -7 43 -11 70 -3
28 -8 53 -10 56 -7 12 -18 220 -18 349 0 120 8 273 18 326 2 10 7 44 11 74 4
30 18 105 31 165 202 920 915 1677 1829 1940 86 25 109 31 220 53 48 10 111
20 165 27 14 2 66 7 115 10 50 4 91 8 93 10 5 4 301 -3 370 -10z"/>
<path d="M2790 5045 c0 -220 2 -255 15 -255 13 0 15 35 15 255 0 220 -2 255
-15 255 -13 0 -15 -35 -15 -255z"/>
<path d="M1940 5143 c0 -4 11 -37 24 -73 13 -36 41 -110 61 -165 38 -104 47
-120 63 -114 9 3 -28 115 -104 317 -8 23 -22 42 -30 42 -8 0 -14 -3 -14 -7z"/>
<path d="M3637 5133 c-3 -5 -18 -44 -35 -88 -99 -267 -98 -263 -70 -252 7 2
23 31 35 63 11 33 39 107 61 166 22 59 37 110 34 113 -8 7 -20 6 -25 -2z"/>
<path d="M1406 4398 c-49 -133 -134 -309 -197 -410 -46 -75 -56 -98 -43 -98
28 0 156 99 246 191 43 44 79 79 81 79 2 0 -4 -37 -14 -82 -20 -90 -21 -93
-39 -184 -7 -34 -15 -67 -20 -74 -5 -8 -44 -12 -139 -11 -131 0 -131 0 -131
-23 0 -23 1 -23 109 -22 165 2 157 10 117 -109 -81 -241 -181 -409 -345 -577
-36 -37 -62 -70 -59 -73 3 -3 31 8 63 25 204 107 374 267 471 445 l37 68 13
-44 c15 -51 27 -134 29 -207 1 -40 5 -55 20 -66 62 -42 153 -15 185 56 54 118
-11 233 -172 306 l-46 21 27 71 c15 38 30 73 34 76 4 4 72 7 153 8 l146 1 -6
-30 c-3 -16 -7 -39 -9 -50 -3 -11 -33 -150 -67 -310 -33 -159 -63 -296 -66
-304 -7 -20 113 -8 169 18 55 25 66 38 81 98 l12 48 85 1 c46 0 87 -1 91 -3 4
-2 3 -14 -1 -26 -5 -12 -12 -45 -15 -73 l-7 -51 68 9 c37 5 91 20 118 32 l51
23 18 84 c10 46 20 91 21 99 17 78 35 160 39 180 3 14 7 36 10 50 3 14 26 122
52 240 25 118 47 224 50 235 25 126 39 175 48 175 6 0 22 7 34 16 22 15 22 16
-60 94 -47 44 -88 75 -94 72 -7 -4 -35 -28 -64 -54 -32 -31 -61 -48 -78 -49
-114 -5 -139 0 -242 45 -56 26 -104 45 -105 44 -2 -2 -24 -104 -50 -228 -26
-124 -48 -229 -49 -235 -2 -5 -6 -28 -11 -50 -4 -22 -9 -43 -12 -47 -2 -4 -34
25 -71 64 l-68 70 -67 -71 c-63 -67 -108 -93 -93 -54 6 15 51 214 62 273 13
67 -9 60 211 61 117 1 116 12 -16 133 l-53 49 -68 -68 -69 -68 -90 -1 c-50 -1
-91 0 -91 2 0 1 27 42 60 91 48 70 67 90 90 95 59 11 31 31 -92 65 -68 19
-127 36 -133 38 -5 2 -27 -43 -49 -99z m1028 -183 c-2 -16 -7 -38 -10 -47 -3
-9 -7 -27 -9 -40 -4 -20 -28 -138 -39 -193 -4 -17 -61 -281 -71 -325 -2 -8
-18 -85 -36 -171 l-33 -157 -89 -1 -90 -2 6 33 c11 57 17 86 83 398 77 358 69
323 91 430 9 47 22 90 28 95 7 6 49 10 93 10 l81 0 -5 -30z"/>
<path d="M4245 4425 c-33 -30 -69 -55 -80 -56 -11 0 -202 -1 -425 -2 -223 -1
-406 -5 -407 -9 -13 -37 -16 -36 422 -36 234 0 427 -1 429 -3 4 -5 -83 -412
-90 -418 -3 -3 -140 -6 -305 -6 l-300 0 -120 47 c-81 31 -122 43 -124 35 -5
-13 -54 -235 -61 -277 -4 -21 -12 -61 -39 -185 -55 -256 -59 -314 -28 -367 50
-85 114 -95 624 -93 431 2 474 5 558 38 97 39 150 139 100 186 -13 12 -36 25
-51 28 -34 7 -34 14 -7 139 11 52 19 100 17 106 -2 6 -34 -34 -70 -88 -75
-113 -110 -151 -154 -170 -23 -10 -116 -13 -382 -14 -194 0 -363 2 -376 6 -14
3 -27 12 -30 20 -3 8 15 110 39 227 25 117 47 219 49 227 1 8 6 32 11 53 l7
37 319 0 c250 0 317 -3 314 -12 -2 -7 -6 -24 -9 -38 -2 -14 -7 -42 -11 -63
l-7 -38 58 6 c71 7 170 33 183 49 5 6 11 25 14 41 3 17 15 73 26 125 12 52 24
111 27 130 3 19 8 38 10 41 2 4 6 22 9 40 20 121 29 143 68 162 20 9 37 19 37
22 0 8 -170 165 -180 165 -3 0 -33 -25 -65 -55z"/>
<path d="M646 4062 c-2 -4 -2 -12 2 -18 7 -10 118 -77 180 -108 30 -16 32 -16
32 1 0 10 -16 27 -38 38 -20 12 -67 38 -104 58 -36 21 -69 34 -72 29z"/>
<path d="M4880 4027 c-30 -17 -67 -38 -82 -46 -16 -8 -28 -23 -28 -33 0 -18 6
-16 58 13 97 55 132 79 132 89 0 17 -24 11 -80 -23z"/>
<path d="M350 3245 c0 -8 2 -15 5 -15 3 0 92 -15 198 -34 106 -19 208 -37 227
-40 19 -3 45 -8 58 -10 18 -4 23 -1 20 12 -2 13 -30 21 -128 38 -69 12 -179
31 -246 43 -144 25 -134 25 -134 6z"/>
<path d="M5175 3249 c-22 -5 -49 -10 -60 -12 -11 -3 -40 -8 -65 -12 -25 -4
-54 -9 -65 -11 -11 -2 -64 -12 -117 -21 -67 -11 -98 -20 -98 -30 0 -15 28 -16
85 -3 22 5 60 11 85 15 25 3 52 8 60 10 8 2 35 7 60 10 24 4 47 8 50 10 3 1
28 6 55 9 67 9 87 16 83 28 -5 15 -24 16 -73 7z"/>
<path d="M2818 2975 l-3 -107 -34 100 c-23 68 -39 98 -47 95 -10 -4 -4 -29 21
-101 19 -54 35 -99 35 -101 0 -2 -30 33 -66 77 -41 49 -72 78 -80 75 -14 -5
-16 -3 86 -123 47 -57 46 -56 -72 13 -51 31 -78 42 -81 34 -3 -8 32 -35 84
-65 49 -30 89 -54 89 -56 0 -1 -26 3 -57 9 -127 26 -153 28 -153 9 0 -10 3
-15 6 -11 3 3 16 2 28 -2 11 -5 47 -12 79 -15 32 -4 68 -11 80 -16 22 -9 21
-9 -3 -10 -25 -2 -32 -3 -100 -15 -19 -4 -46 -9 -60 -12 -29 -5 -34 -9 -26
-21 3 -6 24 -6 53 0 62 12 153 25 153 22 0 -1 -38 -23 -85 -49 -47 -25 -85
-53 -85 -61 0 -7 2 -14 4 -14 2 0 42 23 89 50 87 51 108 60 85 36 -26 -27
-103 -119 -111 -133 -5 -8 -6 -18 -2 -21 7 -7 38 25 107 108 l38 45 -30 -89
c-32 -95 -36 -116 -21 -116 5 0 24 44 42 98 l34 97 3 -102 c2 -76 6 -103 16
-103 9 0 12 23 12 91 -1 50 2 92 5 94 3 2 18 -34 34 -81 17 -46 35 -84 42 -84
18 0 17 6 -21 103 -19 48 -30 87 -25 87 5 0 9 -3 9 -7 0 -5 19 -28 41 -53 22
-25 47 -55 56 -67 17 -26 33 -30 33 -10 0 13 -9 25 -63 87 -67 76 -66 77 8 36
39 -22 80 -46 93 -54 19 -13 22 -13 22 2 0 9 -33 35 -81 62 -44 25 -79 48 -77
49 2 2 23 -1 48 -6 87 -17 150 -22 150 -11 0 10 -9 13 -95 29 -22 4 -43 8 -47
9 -5 1 -20 2 -35 3 -25 2 -26 3 -8 10 11 5 56 14 101 21 57 8 81 16 81 26 0
15 3 15 -139 -11 -37 -7 -65 -9 -62 -4 3 5 9 9 14 9 19 0 160 92 155 100 -7
11 -31 3 -65 -20 -14 -10 -47 -29 -74 -44 -55 -31 -56 -33 32 72 29 35 49 68
46 74 -7 11 -14 5 -106 -102 l-47 -55 25 70 c13 39 29 80 36 92 10 21 4 62 -9
50 -3 -4 -21 -48 -39 -99 -18 -51 -33 -86 -34 -78 -1 8 -2 53 -3 99 -1 56 -6
86 -14 88 -9 3 -13 -24 -15 -102z"/>
<path d="M1925 2600 c-3 -4 8 -36 24 -72 52 -114 79 -226 80 -338 2 -102 182
-86 225 20 47 117 -10 246 -143 324 -65 38 -178 78 -186 66z"/>
<path d="M3571 2540 l-63 -70 -170 0 -169 0 3 -22 c3 -21 8 -23 70 -23 36 0
70 -3 74 -7 4 -4 2 -27 -4 -50 -12 -46 -72 -323 -72 -332 0 -3 -36 -6 -80 -6
-73 0 -80 -2 -80 -20 0 -23 -4 -21 75 -25 33 -1 63 -3 66 -4 4 0 -7 -63 -23
-138 -15 -76 -30 -149 -33 -162 -2 -13 -10 -48 -16 -77 l-12 -53 -56 -11
c-114 -23 -132 -30 -127 -48 6 -23 13 -56 32 -162 4 -25 9 -48 10 -52 1 -5 2
-11 3 -15 0 -4 14 5 29 20 23 22 137 97 148 97 4 0 168 103 269 168 84 54 147
103 142 109 -3 2 -51 -8 -107 -22 -56 -14 -104 -25 -105 -23 -2 2 3 35 11 73
9 39 17 79 20 90 28 137 37 182 37 193 0 14 -2 14 105 16 46 1 85 -1 87 -4 2
-3 -3 -32 -11 -65 -7 -33 -16 -76 -19 -96 -3 -20 -10 -51 -15 -70 -6 -19 -10
-36 -10 -38 0 -2 27 -1 61 2 78 8 166 48 178 80 8 22 16 25 55 24 25 0 46 -2
46 -3 0 -2 -11 -58 -25 -126 -14 -68 -25 -123 -25 -123 0 0 -74 0 -165 0
l-164 1 1 -23 c2 -23 5 -24 93 -22 49 0 121 0 159 0 l68 -1 -7 -27 c-4 -16 -9
-37 -11 -48 -2 -11 -13 -62 -25 -112 l-21 -93 -229 0 -229 0 0 -23 0 -23 540
1 c577 0 584 1 544 47 -10 12 -32 38 -49 57 -75 88 -95 106 -102 95 -5 -6 -37
-43 -72 -83 -64 -71 -65 -71 -116 -71 -28 0 -54 2 -57 5 -4 5 50 265 57 273 2
2 78 4 168 4 219 -1 219 -1 127 106 -39 45 -74 82 -78 82 -4 0 -36 -32 -72
-71 -56 -60 -71 -71 -101 -73 l-36 -1 9 45 c5 25 10 52 13 60 2 8 7 31 10 50
14 89 18 95 66 96 56 1 60 -2 49 -30 -13 -36 3 -44 65 -34 87 13 164 46 170
71 3 12 21 99 40 192 20 94 42 199 50 235 39 180 35 169 72 188 l34 18 -80 77
c-45 42 -84 77 -88 77 -5 -1 -34 -25 -66 -54 l-58 -52 -207 1 c-200 1 -209 2
-262 27 -139 65 -150 67 -150 19 0 -46 -12 -44 -62 9 -26 27 -51 50 -55 50 -4
0 -37 -32 -72 -70z m485 -97 c-3 -10 -15 -63 -26 -118 -11 -55 -22 -110 -25
-121 -4 -18 -12 -21 -52 -20 -27 1 -47 6 -46 11 7 48 13 76 21 115 6 25 13 56
15 70 15 80 15 80 69 80 42 0 49 -2 44 -17z m301 -121 l-30 -139 -52 -1 -51 0
17 81 c9 45 22 108 29 140 l11 57 53 0 53 0 -30 -138z m-630 73 c-10 -61 -70
-330 -76 -338 -4 -4 -26 20 -50 53 l-42 61 -41 -51 c-22 -28 -42 -49 -45 -47
-2 3 4 37 13 77 9 40 17 77 18 84 1 6 11 52 21 101 l18 90 94 0 94 1 -4 -31z
m259 -278 c-2 -12 -14 -67 -26 -122 -12 -55 -23 -107 -24 -115 -2 -11 -18 -16
-54 -18 l-50 -3 19 88 c11 48 25 111 31 140 l10 51 49 0 c45 1 49 -1 45 -21z
m321 -14 c-6 -39 -8 -49 -33 -166 -8 -37 -14 -70 -14 -73 0 -2 -25 -4 -54 -4
l-55 0 9 28 c5 15 11 41 13 57 3 17 13 66 22 110 l17 81 51 2 50 2 -6 -37z"/>
<path d="M829 2486 c-2 -2 -22 -7 -44 -10 -22 -4 -47 -8 -55 -11 -8 -2 -33 -6
-55 -10 -22 -3 -80 -13 -130 -21 -49 -9 -103 -18 -120 -21 -16 -3 -37 -7 -45
-8 -8 -2 -18 -4 -22 -4 -5 -1 -8 -8 -8 -17 0 -12 7 -14 28 -10 15 3 47 8 72
12 25 3 54 8 65 10 27 6 62 12 105 19 210 35 240 42 240 61 0 13 -21 20 -31
10z"/>
<path d="M4770 2470 c0 -12 18 -19 78 -29 42 -7 97 -16 122 -21 25 -5 72 -14
105 -19 105 -18 115 -20 133 -25 9 -3 24 -1 32 4 21 14 0 26 -59 34 -25 3 -59
9 -76 12 -16 3 -99 18 -182 33 -137 24 -153 26 -153 11z"/>
<path d="M1616 2341 c-3 -4 -8 -22 -11 -39 -3 -18 -12 -60 -20 -94 -8 -35 -46
-212 -84 -394 -38 -181 -73 -343 -77 -360 -3 -16 -8 -59 -11 -95 -5 -58 -3
-68 18 -93 40 -45 104 -55 350 -54 368 1 490 40 506 159 6 39 3 45 -27 70
l-32 28 22 116 c12 64 20 119 17 121 -5 5 -47 -49 -47 -60 0 -10 -88 -141
-113 -168 -15 -16 -36 -29 -49 -29 -104 -5 -347 -5 -367 1 -31 8 -33 28 -14
110 15 67 70 327 78 367 4 23 21 103 70 327 3 10 6 19 7 20 2 1 15 7 31 14 33
14 35 31 5 34 -13 1 -30 2 -38 3 -8 1 -51 5 -95 9 -44 5 -88 10 -97 11 -10 2
-20 0 -22 -4z"/>
<path d="M1366 2088 c-31 -120 -108 -258 -196 -352 -87 -92 -100 -112 -100
-156 0 -63 44 -99 113 -94 63 5 159 90 201 179 35 74 55 186 51 285 -4 101
-25 210 -40 210 -6 0 -19 -33 -29 -72z"/>
<path d="M2298 2115 c-2 -3 7 -38 21 -77 22 -64 25 -92 27 -218 1 -80 -3 -180
-10 -222 -10 -70 -10 -79 7 -102 22 -31 73 -42 120 -27 82 27 144 149 134 267
-9 118 -79 227 -210 330 -68 53 -79 59 -89 49z"/>
<path d="M775 1666 c-120 -70 -134 -81 -127 -93 10 -16 206 96 210 120 5 23
-3 21 -83 -27z"/>
<path d="M4770 1683 c1 -20 164 -118 181 -107 13 8 -5 29 -40 47 -14 7 -52 28
-83 46 -51 29 -58 31 -58 14z"/>
<path d="M2066 838 c-92 -246 -124 -344 -116 -352 5 -5 12 -7 15 -4 6 6 145
379 145 391 0 4 -6 7 -14 7 -8 0 -21 -19 -30 -42z"/>
<path d="M2790 610 c0 -233 2 -270 15 -270 13 0 15 37 15 270 0 233 -2 270
-15 270 -13 0 -15 -37 -15 -270z"/>
<path d="M3500 872 c0 -9 63 -187 80 -227 5 -11 19 -49 32 -84 13 -36 29 -66
36 -69 24 -8 20 5 -110 361 -9 24 -38 39 -38 19z"/>
</g>
</svg>
